<svg width="27" height="25" viewBox="0 0 27 25" fill="none" xmlns="http://www.w3.org/2000/svg">
<path fill-rule="evenodd" clip-rule="evenodd" d="M2.76136 6.25C2.76136 2.79822 5.50871 0 8.89773 0H13.5C16.889 0 19.6364 2.79822 19.6364 6.25V7.64718C22.2152 8.2716 24.2386 10.8051 24.2386 13.75V17.9702C24.2386 18.7013 24.4485 19.4164 24.8423 20.0276L26.7988 23.0642C27.0462 23.4482 27.0669 23.9396 26.8527 24.3438C26.6384 24.748 26.2237 25 25.7727 25H13.5C10.111 25 7.36364 22.2018 7.36364 18.75V17.5H1.22727C0.776257 17.5 0.36158 17.248 0.147324 16.8438C-0.0669312 16.4396 -0.0462381 15.9482 0.201216 15.5642L2.15772 12.5276C2.55155 11.9164 2.76136 11.2013 2.76136 10.4702V6.25ZM9.81818 17.5V18.75C9.81818 20.8211 11.4666 22.5 13.5 22.5H23.4994L22.7902 21.3993C22.1338 20.3806 21.7841 19.1886 21.7841 17.9702V13.75C21.7841 12.1538 20.8249 10.8386 19.6364 10.2837V11.25C19.6364 14.7018 16.889 17.5 13.5 17.5H9.81818ZM3.50062 15L4.20984 13.8993C4.86621 12.8806 5.21591 11.6886 5.21591 10.4702V6.25C5.21591 4.17893 6.86432 2.5 8.89773 2.5H13.5C15.5334 2.5 17.1818 4.17893 17.1818 6.25V11.25C17.1818 13.3211 15.5334 15 13.5 15H3.50062Z" fill="#BB46C4"/>
</svg>
