<svg width="25" height="25" viewBox="0 0 25 25"  xmlns="http://www.w3.org/2000/svg">
<path fill-rule="evenodd" clip-rule="evenodd" d="M2.64963 6.25C2.64963 2.79822 5.18196 0 8.30575 0H12.5478C15.6716 0 18.204 2.79822 18.204 6.25V7.64718C20.581 8.2716 22.4461 10.8051 22.4461 13.75V17.9702C22.4461 18.7013 22.6395 19.4164 23.0025 20.0276L24.8059 23.0642C25.0339 23.4482 25.053 23.9396 24.8555 24.3438C24.658 24.748 24.2758 25 23.8601 25H12.5478C9.42406 25 6.89172 22.2018 6.89172 18.75V17.5H1.2356C0.819876 17.5 0.437652 17.248 0.240165 16.8438C0.042677 16.4396 0.0617507 15.9482 0.289838 15.5642L2.09323 12.5276C2.45623 11.9164 2.64963 11.2013 2.64963 10.4702V6.25ZM9.15417 17.5V18.75C9.15417 20.8211 10.6736 22.5 12.5478 22.5H21.7647L21.111 21.3993C20.5059 20.3806 20.1836 19.1886 20.1836 17.9702V13.75C20.1836 12.1538 19.2995 10.8386 18.204 10.2837V11.25C18.204 14.7018 15.6716 17.5 12.5478 17.5H9.15417ZM3.33103 15L3.98475 13.8993C4.58975 12.8806 4.91208 11.6886 4.91208 10.4702V6.25C4.91208 4.17893 6.43148 2.5 8.30575 2.5H12.5478C14.4221 2.5 15.9415 4.17893 15.9415 6.25V11.25C15.9415 13.3211 14.4221 15 12.5478 15H3.33103Z" />
</svg>
