<svg width="29" height="25" viewBox="0 0 29 25" fill="none" xmlns="http://www.w3.org/2000/svg">
<path d="M16.4607 1.63562L16.4607 1.63566L16.4697 1.62652C16.6022 1.49173 16.8241 1.4777 16.9813 1.62761C17.0657 1.71484 17.1066 1.83791 17.0798 1.97733L15.8938 7.69531L15.5194 9.49996H17.3625H24.425C26.0318 9.49996 27.1256 11.1468 26.495 12.6371C26.4947 12.6378 26.4944 12.6385 26.4941 12.6391L22.4242 22.1397C22.2579 22.5144 21.8918 22.75 21.5 22.75H10.25C9.70343 22.75 9.25 22.2965 9.25 21.75V9.26246C9.25 8.99267 9.35806 8.73822 9.53566 8.56062L16.4607 1.63562ZM3.75 21.75C3.75 22.2965 3.29657 22.75 2.75 22.75C2.20343 22.75 1.75 22.2965 1.75 21.75V11.75C1.75 11.2034 2.20343 10.75 2.75 10.75C3.29657 10.75 3.75 11.2034 3.75 11.75V21.75Z" stroke-width="3"/>
</svg>
