<svg width="27" height="25" viewBox="0 0 27 25" fill="none" xmlns="http://www.w3.org/2000/svg">
<path d="M13.5 0.416748C6.37004 0.416748 0.583374 5.83008 0.583374 12.5001C0.583374 19.1701 6.37004 24.5834 13.5 24.5834C20.63 24.5834 26.4167 19.1701 26.4167 12.5001C26.4167 5.83008 20.63 0.416748 13.5 0.416748ZM14.7917 20.9584H12.2084V18.5417H14.7917V20.9584ZM17.4655 11.5938L16.303 12.7055C15.6571 13.3217 15.1921 13.8776 14.9596 14.7476C14.8563 15.1342 14.7917 15.5692 14.7917 16.1251H12.2084V15.5209C12.2084 14.9651 12.3117 14.4334 12.4925 13.938C12.7509 13.2372 13.1771 12.6088 13.7196 12.1013L15.3213 10.5788C15.9155 10.0472 16.1996 9.24966 16.0317 8.40383C15.8638 7.53383 15.1405 6.79675 14.2363 6.55508C12.8025 6.1805 11.4721 6.94175 11.0459 8.08967C10.8909 8.53675 10.4905 8.87508 9.98671 8.87508H9.59921C8.85004 8.87508 8.33337 8.19842 8.54004 7.52175C9.09546 5.7455 10.71 4.39217 12.7121 4.10216C14.6755 3.81217 16.5484 4.76675 17.7109 6.27716C19.235 8.24675 18.783 10.3613 17.4655 11.5938Z" fill="#BB46C4"/>
</svg>
