<svg width="29" height="25" viewBox="0 0 29 25" fill="none" xmlns="http://www.w3.org/2000/svg">
<path d="M12.5384 23.3653L12.5383 23.3653L12.5303 23.3734C12.3978 23.5082 12.1759 23.5223 12.0187 23.3724C11.9343 23.2851 11.8934 23.1621 11.9202 23.0226L13.1062 17.3047L13.4806 15.5H11.6375H4.575C2.96642 15.5 1.87766 13.8533 2.51585 12.3667L2.51631 12.3657L6.59131 2.85316L6.59131 2.85316L6.59316 2.84881C6.74605 2.48879 7.10346 2.25 7.5 2.25H18.7375C19.2841 2.25 19.7375 2.70343 19.7375 3.25V15.7375C19.7375 16.0073 19.6294 16.2617 19.4518 16.4393L19.4509 16.4403L12.5384 23.3653ZM25.25 3.25C25.25 2.70343 25.7034 2.25 26.25 2.25C26.7966 2.25 27.25 2.70343 27.25 3.25V13.25C27.25 13.7966 26.7966 14.25 26.25 14.25C25.7034 14.25 25.25 13.7966 25.25 13.25V3.25Z" stroke-width="3"/>
</svg>
