<svg width="29" height="29" viewBox="0 0 29 29"  xmlns="http://www.w3.org/2000/svg">
<path d="M14.5 2.5C16.6005 2.5 18.615 3.3351 20.1003 4.82159C21.5856 6.30808 22.42 8.32419 22.42 10.4264C22.42 19.2397 25.6323 20.9765 26.5 20.9765H2.5C3.38615 20.9765 6.58 19.2212 6.58 10.4264C6.58 8.32419 7.41443 6.30808 8.89971 4.82159C10.385 3.3351 12.3995 2.5 14.5 2.5V2.5Z" stroke-width="2" stroke-linecap="round" stroke-linejoin="round"/>
<path d="M11.731 24.3579C11.8905 24.9714 12.249 25.5145 12.7501 25.9022C13.2513 26.2899 13.8668 26.5002 14.5002 26.5002C15.1336 26.5002 15.7491 26.2899 16.2502 25.9022C16.7514 25.5145 17.1098 24.9714 17.2694 24.3579" stroke-linecap="round" stroke-linejoin="round"/>
</svg>
